<svg version="1.1" id="Layer_1" xmlns="http://www.w3.org/2000/svg" x="0" y="0" viewBox="0 0 318 305" xml:space="preserve"><style>.st0{opacity:.2;fill:#ffd5da;enable-background:new}.st3{fill:#ffc6cd}</style><path class="st0" d="M166.5-.5c-21.1 32.1-59.4 60.3-125.8 72.8-1 .2-1.9.4-2.8.5C21.5 75.5 9.3 74.1.5 69.7V-.5h166z"/><path class="st0" d="M132.5-.5C116.6 29 87.7 56.3 37.9 72.8c-11.3 3.8-23.6 7-37.2 9.5H.5V-.5h132z"/><path class="st0" d="M186.4-.5C140 70.7 57.2 95.9.5 101.2V4.4C8 2.8 15.6 1.2 23.3-.5h163.1z"/><path d="M317.5 278v26.5H262c2-1.3 4.1-2.5 6.1-3.7 1-.6 2-1.2 2.9-1.7 5.7-3.3 11.5-6.3 17.3-9.1 1.2-.6 2.4-1.1 3.6-1.7 6-2.8 12.1-5.3 18.1-7.6 1-.4 1.9-.7 2.9-1.1 1.5-.5 3.1-1.1 4.6-1.6z" opacity=".46" fill="#ffecee"/><g opacity=".4"><circle class="st3" cx="311" cy="229" r="2"/><circle class="st3" cx="311" cy="239" r="2"/><circle class="st3" cx="311" cy="249" r="2"/><circle class="st3" cx="311" cy="259" r="2"/><circle class="st3" cx="311" cy="269" r="2"/><circle class="st3" cx="311" cy="279" r="2"/><circle class="st3" cx="311" cy="289" r="2"/><circle class="st3" cx="311" cy="299" r="2"/><circle class="st3" cx="304" cy="229" r="2"/><circle class="st3" cx="304" cy="239" r="2"/><circle class="st3" cx="304" cy="249" r="2"/><circle class="st3" cx="304" cy="259" r="2"/><circle class="st3" cx="304" cy="269" r="2"/><circle class="st3" cx="304" cy="279" r="2"/><circle class="st3" cx="304" cy="289" r="2"/><circle class="st3" cx="304" cy="299" r="2"/><circle class="st3" cx="297" cy="239" r="2"/><circle class="st3" cx="297" cy="249" r="2"/><circle class="st3" cx="297" cy="259" r="2"/><circle class="st3" cx="297" cy="269" r="2"/><circle class="st3" cx="297" cy="279" r="2"/><circle class="st3" cx="297" cy="289" r="2"/><circle class="st3" cx="297" cy="299" r="2"/><circle class="st3" cx="290" cy="239" r="2"/><circle class="st3" cx="290" cy="249" r="2"/><circle class="st3" cx="290" cy="259" r="2"/><circle class="st3" cx="290" cy="269" r="2"/><circle class="st3" cx="290" cy="279" r="2"/><circle class="st3" cx="290" cy="289" r="2"/><circle class="st3" cx="290" cy="299" r="2"/><circle class="st3" cx="283" cy="249" r="2"/><circle class="st3" cx="283" cy="259" r="2"/><circle class="st3" cx="283" cy="269" r="2"/><circle class="st3" cx="283" cy="279" r="2"/><circle class="st3" cx="283" cy="289" r="2"/><circle class="st3" cx="283" cy="299" r="2"/><circle class="st3" cx="276" cy="249" r="2"/><circle class="st3" cx="276" cy="259" r="2"/><circle class="st3" cx="276" cy="269" r="2"/><circle class="st3" cx="276" cy="279" r="2"/><circle class="st3" cx="276" cy="289" r="2"/><circle class="st3" cx="276" cy="299" r="2"/><circle class="st3" cx="269" cy="259" r="2"/><circle class="st3" cx="269" cy="269" r="2"/><circle class="st3" cx="269" cy="279" r="2"/><circle class="st3" cx="269" cy="289" r="2"/><circle class="st3" cx="269" cy="299" r="2"/><circle class="st3" cx="262" cy="259" r="2"/><circle class="st3" cx="262" cy="269" r="2"/><circle class="st3" cx="262" cy="279" r="2"/><circle class="st3" cx="262" cy="289" r="2"/><circle class="st3" cx="262" cy="299" r="2"/><circle class="st3" cx="255" cy="269" r="2"/><circle class="st3" cx="255" cy="279" r="2"/><circle class="st3" cx="255" cy="289" r="2"/><circle class="st3" cx="255" cy="299" r="2"/><circle class="st3" cx="248" cy="269" r="2"/><circle class="st3" cx="248" cy="279" r="2"/><circle class="st3" cx="248" cy="289" r="2"/><circle class="st3" cx="248" cy="299" r="2"/><circle class="st3" cx="241" cy="279" r="2"/><circle class="st3" cx="241" cy="289" r="2"/><circle class="st3" cx="241" cy="299" r="2"/><circle class="st3" cx="234" cy="279" r="2"/><circle class="st3" cx="234" cy="289" r="2"/><circle class="st3" cx="234" cy="299" r="2"/><circle class="st3" cx="227" cy="289" r="2"/><circle class="st3" cx="227" cy="299" r="2"/><circle class="st3" cx="220" cy="299" r="2"/><circle class="st3" cx="211" cy="299" r="2"/><circle class="st3" cx="202" cy="299" r="2"/><circle class="st3" cx="220" cy="289" r="2"/></g></svg>